<?xml version="1.0" encoding="UTF-8" standalone="no"?>
<svg width="128px" height="100px" viewBox="0 0 128 100" version="1.1" xmlns="http://www.w3.org/2000/svg" xmlns:xlink="http://www.w3.org/1999/xlink">
    <!-- Generator: Sketch Beta 3.7 (28138) - http://www.bohemiancoding.com/sketch -->
    <title>icn-design</title>
    <desc>Created with Sketch Beta.</desc>
    <defs></defs>
    <g id="homepage" stroke="none" stroke-width="1" fill="none" fill-rule="evenodd">
        <g id="homepage-desktop" transform="translate(-506.000000, -5546.000000)" fill="#2293B1">
            <g id="section.awards" transform="translate(0.000000, 5234.000000)">
                <g id="div.content" transform="translate(407.000000, 90.000000)">
                    <g id="uls" transform="translate(30.000000, 222.000000)">
                        <g id="ul-design">
                            <path d="M133,75 C132.448,75 132,75.448 132,76 C132,76.552 132.448,77 133,77 C133.552,77 134,76.552 134,76 C134,75.448 133.552,75 133,75 L133,75 L133,75 Z M190,69.877 C190,71.599 188.599,73 186.877,73 L79.123,73 C77.401,73 76,71.599 76,69.877 L76,10.123 C76,8.401 77.401,7 79.123,7 L186.877,7 C188.599,7 190,8.401 190,10.123 L190,69.877 L190,69.877 Z M186.877,6 L79.123,6 C76.846,6 75,7.846 75,10.123 L75,69.877 C75,72.154 76.846,74 79.123,74 L186.877,74 C189.154,74 191,72.154 191,69.877 L191,10.123 C191,7.846 189.154,6 186.877,6 L186.877,6 L186.877,6 Z M195,73.844 C195,76.136 193.136,78 190.844,78 L75.156,78 C72.864,78 71,76.136 71,73.844 L71,6.156 C71,3.864 72.864,2 75.156,2 L190.844,2 C193.136,2 195,3.864 195,6.156 L195,73.844 L195,73.844 Z M148.343,96 L117.656,96 C121.123,89.112 122,81.744 122,80 L144,80 C144,81.744 144.877,89.114 148.343,96 L148.343,96 L148.343,96 Z M154,97 L154,97.55 C154,98.35 153.35,99 152.551,99 L113.45,99 C112.65,99 112,98.35 112,97.55 L112,97 L154,97 L154,97 Z M190.844,0 L75.156,0 C71.77,0 69,2.77 69,6.156 L69,73.844 C69,77.23 71.77,80 75.156,80 L121,80 C121,81.719 120.11,89.083 116.531,96 L111,96 L111,97.55 C111,98.898 112.102,100 113.45,100 L152.551,100 C153.898,100 155,98.898 155,97.55 L155,96 L149.469,96 C145.89,89.083 145,81.719 145,80 L190.844,80 C194.23,80 197,77.23 197,73.844 L197,6.156 C197,2.77 194.23,0 190.844,0 L190.844,0 L190.844,0 Z" id="icn-design"></path>
                        </g>
                    </g>
                </g>
            </g>
        </g>
    </g>
</svg>