<?xml version="1.0" encoding="UTF-8" standalone="no"?>
<svg width="144px" height="100px" viewBox="0 0 144 100" version="1.1" xmlns="http://www.w3.org/2000/svg" xmlns:xlink="http://www.w3.org/1999/xlink">
    <!-- Generator: Sketch Beta 3.7 (28138) - http://www.bohemiancoding.com/sketch -->
    <title>icn-music</title>
    <desc>Created with Sketch Beta.</desc>
    <defs></defs>
    <g id="homepage" stroke="none" stroke-width="1" fill="none" fill-rule="evenodd">
        <g id="homepage-desktop" transform="translate(-796.000000, -5546.000000)" fill="#6A6CAC">
            <g id="section.awards" transform="translate(0.000000, 5234.000000)">
                <g id="div.content" transform="translate(407.000000, 90.000000)">
                    <g id="uls" transform="translate(30.000000, 222.000000)">
                        <g id="ul.music" transform="translate(304.000000, 0.000000)">
                            <g id="icn-music" transform="translate(55.000000, 0.000000)">
                                <path d="M26.5,67 L26.5,99 C26.5,99.5522847 26.0522847,100 25.5,100 C24.9477153,100 24.5,99.5522847 24.5,99 L24.5,23.9415806 C24.5,23.3892959 24.9477153,22.9415806 25.5,22.9415806 L60.5159999,22.9415806 C61.0682847,22.9415806 61.5159999,23.3892959 61.5159999,23.9415806 L61.5159999,35.0781082 C61.5159999,35.6303929 61.0682847,36.0781082 60.5159999,36.0781082 C59.9637152,36.0781082 59.5159999,35.6303929 59.5159999,35.0781082 L59.5159999,29 L26.5,29 L26.5,65 L42.5,65 L42.5,67 L26.5,67 L26.5,67 L26.5,67 Z M59.5159999,28 L59.5159999,24.9415806 L26.5,24.9415806 L26.5,28 L59.5159999,28 L59.5159999,28 L59.5159999,28 Z" id="floor-tom"></path>
                                <path d="M89.9956527,32 L121,32 L121,40 L98.4999995,39.958405 L98.4999995,41.9584054 L106,41.9584054 L106,53 C106,53.5522847 106.447715,54 107,54 C107.552285,54 108,53.5522847 108,53 L108,41.9584054 L121.997227,41.9999962 C122.550593,42.0015306 123,41.553368 123,41 L123,26.9643312 C123,26.4120464 122.552285,25.9643312 122,25.9643312 L88.9956527,25.9643312 C88.4433679,25.9643312 87.9956527,26.4120464 87.9956527,26.9643312 L87.9956527,34.5168586 C87.9956527,35.0691434 88.4433679,35.5168586 88.9956527,35.5168586 C89.5479374,35.5168586 89.9956527,35.0691434 89.9956527,34.5168586 L89.9956527,32 L89.9956527,32 L89.9956527,32 L89.9956527,32 L89.9956527,32 L89.9956527,32 L89.9956527,32 Z M121,31 L89.9956527,31 L89.9956527,27.9643312 L121,27.9643312 L121,31 L121,31 L121,31 L121,31 L121,31 L121,31 L121,31 Z" id="snare"></path>
                                <path d="M76,97 C93.673112,97 108,82.673112 108,65 C108,47.326888 93.673112,33 76,33 C58.326888,33 44,47.326888 44,65 C44,82.673112 58.326888,97 76,97 L76,97 L76,97 L76,97 Z M53.2168419,90.1973717 L43.9539022,99.4603114 C43.5633779,99.8508357 42.9302129,99.8508357 42.5396886,99.4603114 C42.1491643,99.0697871 42.1491643,98.4366221 42.5396886,98.0460978 L51.7703712,88.8154152 L53.2168419,90.1973717 L53.2168419,90.1973717 L53.2168419,90.1973717 Z M109.707107,99.4603114 C109.316582,99.8508357 108.683418,99.8508357 108.292893,99.4603114 L98.9292609,90.0966791 L100.381805,88.7207956 L109.707107,98.0460978 C110.097631,98.4366221 110.097631,99.0697871 109.707107,99.4603114 L109.707107,99.4603114 L109.707107,99.4603114 Z M76,99 L76,99 C57.2223185,99 42,83.7776815 42,65 C42,46.2223185 57.2223185,31 76,31 C94.7776815,31 110,46.2223185 110,65 C110,83.7776815 94.7776815,99 76,99 L76,99 L76,99 L76,99 L76,99 L76,99 L76,99 L76,99 L76,99 Z M76,94 C59.9837423,94 47,81.0162577 47,65 C47,48.9837423 59.9837423,36 76,36 C92.0162577,36 105,48.9837423 105,65 C105,81.0162577 92.0162577,94 76,94 L76,94 L76,94 L76,94 L76,94 L76,94 L76,94 L76,94 Z M76,93 C91.463973,93 104,80.463973 104,65 C104,49.536027 91.463973,37 76,37 C60.536027,37 48,49.536027 48,65 C48,80.463973 60.536027,93 76,93 L76,93 L76,93 L76,93 L76,93 L76,93 L76,93 L76,93 Z M88,82 C85.2385763,82 83,79.7614237 83,77 C83,74.2385763 85.2385763,72 88,72 C90.7614237,72 93,74.2385763 93,77 C93,79.7614237 90.7614237,82 88,82 L88,82 L88,82 L88,82 L88,82 L88,82 L88,82 L88,82 Z M88,81 C90.209139,81 92,79.209139 92,77 C92,74.790861 90.209139,73 88,73 C85.790861,73 84,74.790861 84,77 C84,79.209139 85.790861,81 88,81 L88,81 L88,81 L88,81 L88,81 L88,81 L88,81 L88,81 Z" id="kick"></path>
                                <path d="M78,12.4879677 C78,12.4879677 78.0062458,8.1776632 78.0093686,6.02251097 C78.0094501,5.96627202 108.004086,6 108.004086,6 L108.004086,5 C108.004086,5 78.0106708,5.12383599 78.0108449,5.00371428 C78.0122957,4.00247619 78.0151974,2 78.0151974,2 L108.004085,2 L108.004085,5 L108.004085,6 L108.004085,20.5112113 L78,20.5112113 L78,12.4879675 L76,12.4879675 L76,21.5112113 C76,22.0634961 76.4477153,22.5112113 77,22.5112113 L109.004085,22.5112113 C109.55637,22.5112113 110.004085,22.0634961 110.004085,21.5112113 L110.004085,1 C110.004085,0.44771525 109.55637,0 109.004085,0 L77.0151974,0 C76.4629126,0 76.0151974,0.44771525 76.0151974,1 L76.0151974,10.4879677 L68,10.4879677 C67.4477153,10.4879677 67,10.9356829 67,11.4879677 L67,33.0112109 C67,33.5634957 67.4477153,34.0112109 68,34.0112109 C68.5522847,34.0112109 69,33.5634957 69,33.0112109 L69,12.4879677 L78,12.4879677 Z" id="tom"></path>
                                <path d="M130,19 L130,20 L143.5,20 L143.5,21 L130,21 L130,89.0460978 L139.353553,98.3996512 C139.548816,98.5949134 139.548816,98.9114958 139.353553,99.106758 C139.158291,99.3020201 138.841709,99.3020201 138.646447,99.106758 L130,90.4603114 L130,99 C130,99.5522847 129.552285,100 129,100 C128.447715,100 128,99.5522847 128,99 L128,90.7071068 L119.600349,99.106758 C119.405087,99.3020201 119.088504,99.3020201 118.893242,99.106758 C118.69798,98.9114958 118.69798,98.5949134 118.893242,98.3996512 L128,89.2928932 L128,21 L114.5,21 L114.5,20 L128,20 L128,19 L114.5,19 L114.5,18 L128,18 C128,17.4477153 128.447715,17 129,17 C129.552285,17 130,17.4477153 130,18 L143.5,18 L143.5,19 L130,19 L130,19 Z" id="hi-hat"></path>
                                <path d="M19,2.5 L19,99 C19,99.5522847 18.5522847,100 18,100 C17.4477153,100 17,99.5522847 17,99 L17,90.7071068 L8.60034879,99.106758 C8.40508664,99.3020201 8.08850415,99.3020201 7.89324201,99.106758 C7.69797986,98.9114958 7.69797986,98.5949134 7.89324201,98.3996512 L17,89.2928932 L17,2.5 L0,2.5 L0,1.5 L17,1.5 C17,0.94771525 17.4477153,0.5 18,0.5 C18.5522847,0.5 19,0.94771525 19,1.5 L37,1.5 L37,2.5 L19,2.5 L19,2.5 Z" id="cymbal"></path>
                            </g>
                        </g>
                    </g>
                </g>
            </g>
        </g>
    </g>
</svg>