<?xml version="1.0" encoding="UTF-8" standalone="no"?>
<svg width="21px" height="19px" viewBox="0 0 21 19" version="1.1" xmlns="http://www.w3.org/2000/svg" xmlns:xlink="http://www.w3.org/1999/xlink">
    <!-- Generator: Sketch 3.6.1 (26313) - http://www.bohemiancoding.com/sketch -->
    <title>icn-plane</title>
    <desc>Created with Sketch.</desc>
    <defs></defs>
    <g id="homepage" stroke="none" stroke-width="1" fill="none" fill-rule="evenodd">
        <g id="homepage-desktop" transform="translate(-423.000000, -4763.000000)" fill="#FFFFFF">
            <g id="section" transform="translate(0.000000, 4471.000000)">
                <g id="map" transform="translate(335.000000, 242.000000)">
                    <path d="M97.8569889,52.0580595 C97.7580094,51.9452595 97.6139277,51.8802595 97.462091,51.8802595 C97.3102543,51.8802595 97.1659685,51.9452595 97.0669889,52.0580595 C96.5155604,52.6872595 96.2122951,53.4890595 96.2122951,54.3184595 L96.2122951,58.8190595 L87.4661726,65.5536595 L87.4661726,67.5944595 L96.2124991,64.3292595 L96.2124991,67.3904595 C96.2124991,67.6752595 96.2841318,67.9556595 96.4208665,68.2068595 L93.297193,70.2476595 L93.297193,71.8802595 L97.462091,70.2476595 L101.626989,71.8802595 L101.626989,70.2476595 L98.5033155,68.2068595 C98.6400502,67.9556595 98.7116828,67.6752595 98.7116828,67.3904595 L98.7116828,64.3292595 L107.458009,67.5944595 L107.458009,65.5536595 L98.7116828,58.8190595 L98.7116828,54.3184595 C98.7116828,53.4890595 98.4084175,52.6872595 97.8569889,52.0580595" id="icn-plane" transform="translate(97.462091, 61.880260) rotate(-120.000000) translate(-97.462091, -61.880260) "></path>
                </g>
            </g>
        </g>
    </g>
</svg>