<?xml version="1.0" encoding="UTF-8" standalone="no"?>
<svg width="153px" height="15px" viewBox="0 0 153 15" version="1.1" xmlns="http://www.w3.org/2000/svg" xmlns:xlink="http://www.w3.org/1999/xlink">
    <!-- Generator: Sketch Beta 3.7 (28138) - http://www.bohemiancoding.com/sketch -->
    <title>logo-black</title>
    <desc>Created with Sketch Beta.</desc>
    <defs></defs>
    <g id="homepage" stroke="none" stroke-width="1" fill="none" fill-rule="evenodd">
        <g id="homepage-desktop" transform="translate(-135.000000, -33.000000)" fill="#808080">
            <g id="nav.top">
                <g id="div.content" transform="translate(135.000000, 19.000000)">
                    <path d="M0,28.7184987 L0,14.2412869 L1.45179063,14.2412869 L1.45179063,27.5924933 L9.60055096,27.5924933 L9.60055096,28.7184987 L0,28.7184987 L0,28.7184987 Z M16.953168,23.1689008 L16.953168,14.2412869 L18.4049587,14.2412869 L18.4049587,23.1286863 C18.4049587,26.0643432 20.184573,27.8337802 23.5096419,27.8337802 C26.8347107,27.8337802 28.6143251,26.0643432 28.6143251,23.1286863 L28.6143251,14.2412869 L30.0661157,14.2412869 L30.0661157,23.1689008 C30.0661157,26.7479893 27.8181818,29 23.5096419,29 C19.2011019,28.9597855 16.953168,26.7077748 16.953168,23.1689008 L16.953168,23.1689008 Z M38.7300275,21.4798928 C38.7300275,17.0160858 42.476584,14 47.3002755,14 C49.969697,14 52.030303,15.0053619 53.4352617,16.5737265 L52.2176309,17.2573727 C51.1404959,16.0107239 49.3140496,15.1662198 47.3002755,15.1662198 C43.3663912,15.1662198 40.2754821,17.7399464 40.2754821,21.5201072 C40.2754821,25.2600536 43.3663912,27.8739946 47.3002755,27.8739946 C49.3140496,27.8739946 51.1873278,27.0294906 52.2176309,25.7828418 L53.4352617,26.4262735 C51.9366391,27.9946381 49.922865,29 47.2534435,29 C42.476584,28.9597855 38.7300275,25.9436997 38.7300275,21.4798928 L38.7300275,21.4798928 Z M81.4876033,21.4798928 C81.4876033,17.2573727 84.7190083,14 89.6831956,14 C94.600551,14 97.8787879,17.2573727 97.8787879,21.4798928 C97.8787879,25.7024129 94.600551,28.9597855 89.6831956,28.9597855 C84.7190083,28.9597855 81.4876033,25.7024129 81.4876033,21.4798928 L81.4876033,21.4798928 Z M96.3333333,21.4798928 C96.3333333,17.8203753 93.7107438,15.1260054 89.6363636,15.1260054 C85.5619835,15.1260054 82.9393939,17.8203753 82.9393939,21.4798928 C82.9393939,25.1394102 85.5619835,27.8337802 89.6363636,27.8337802 C93.7107438,27.8337802 96.3333333,25.1394102 96.3333333,21.4798928 L96.3333333,21.4798928 Z M116.37741,28.7184987 L111.647383,22.7265416 L107.947658,22.7265416 L107.947658,28.7184987 L106.495868,28.7184987 L106.495868,14.2412869 L112.77135,14.2412869 C115.674931,14.2412869 117.922865,15.8096515 117.922865,18.463807 C117.922865,21.077748 115.768595,22.5656836 113.239669,22.6461126 L118.110193,28.7184987 L116.37741,28.7184987 L116.37741,28.7184987 Z M116.37741,18.463807 C116.37741,16.6541555 114.878788,15.3672922 112.630854,15.3672922 L107.900826,15.3672922 L107.900826,21.6005362 L112.630854,21.6005362 C114.92562,21.6005362 116.37741,20.2734584 116.37741,18.463807 L116.37741,18.463807 Z M126.539945,28.7184987 L126.539945,14.2412869 L127.991736,14.2412869 L127.991736,28.7184987 L126.539945,28.7184987 L126.539945,28.7184987 Z M136.608815,21.4798928 C136.608815,17.2573727 139.84022,14 144.804408,14 C149.721763,14 153,17.2573727 153,21.4798928 C153,25.7024129 149.721763,28.9597855 144.804408,28.9597855 C139.84022,28.9597855 136.608815,25.7024129 136.608815,21.4798928 L136.608815,21.4798928 Z M151.501377,21.4798928 C151.501377,17.8203753 148.878788,15.1260054 144.804408,15.1260054 C140.730028,15.1260054 138.107438,17.8203753 138.107438,21.4798928 C138.107438,25.1394102 140.730028,27.8337802 144.804408,27.8337802 C148.878788,27.8337802 151.501377,25.1394102 151.501377,21.4798928 L151.501377,21.4798928 Z M62.1660763,25.1053365 L70.9395029,25.1053365 L72.6106318,28.6112601 L74.2353404,28.6112601 L67.4579844,14.3485255 L65.8332758,14.3485255 L70.4753005,23.9898153 L62.6302788,23.9898153 L62.1660763,25.1053365 L62.1660763,25.1053365 Z" id="logo-black"></path>
                </g>
            </g>
        </g>
    </g>
</svg>